<?xml version="1.0" encoding="utf-8"?>
<!-- Generator: Adobe Illustrator 27.6.1, SVG Export Plug-In . SVG Version: 6.00 Build 0)  -->
<svg version="1.1" xmlns="http://www.w3.org/2000/svg" xmlns:xlink="http://www.w3.org/1999/xlink" x="0px" y="0px"
	 viewBox="0 0 72 72" style="enable-background:new 0 0 72 72;" xml:space="preserve">
<style type="text/css">
	.st0{display:none;}
	.st1{display:inline;}
	.st2{fill-rule:evenodd;clip-rule:evenodd;}
	.st3{fill-rule:evenodd;clip-rule:evenodd;fill:#FFFFFF;}
	.st4{fill:url(#SVGID_1_);}
	.st5{fill:url(#SVGID_00000050643803608485409260000004606755002486236588_);}
	.st6{fill:#654C9F;}
</style>
<g id="Layer_1" class="st0">
	<g class="st1">
		<path class="st2" d="M8,72h56c4.42,0,8-3.58,8-8V8c0-4.42-3.58-8-8-8H8C3.58,0,0,3.58,0,8v56C0,68.42,3.58,72,8,72z"/>
		<path class="st3" d="M62,62H51.32V43.8c0-4.99-1.9-7.78-5.84-7.78c-4.3,0-6.54,2.9-6.54,7.78V62h-10.3V27.33h10.3V32
			c0,0,3.1-5.73,10.45-5.73c7.35,0,12.62,4.49,12.62,13.78V62z M16.35,22.79c-3.51,0-6.35-2.86-6.35-6.4s2.84-6.4,6.35-6.4
			s6.35,2.86,6.35,6.4S19.86,22.79,16.35,22.79z M11.03,62h10.74V27.33H11.03V62z"/>
	</g>
</g>
<g id="Layer_2">
	<g id="Symbol">
		<g>
			
				<radialGradient id="SVGID_1_" cx="44.136" cy="454.2249" r="103.4767" gradientTransform="matrix(0.9986 -0.0523 -0.0445 -0.8488 -22.3508 453.0826)" gradientUnits="userSpaceOnUse">
				<stop  offset="0" style="stop-color:#FED576"/>
				<stop  offset="0.2634" style="stop-color:#F47133"/>
				<stop  offset="0.6091" style="stop-color:#BC3081"/>
				<stop  offset="1" style="stop-color:#4C63D2"/>
			</radialGradient>
			<path class="st4" d="M12.57,2.1c-2.36,0.92-4.35,2.14-6.34,4.13c-1.99,1.98-3.21,3.99-4.13,6.33c-0.89,2.27-1.48,4.87-1.66,8.68
				s-0.22,5.03-0.22,14.75s0.04,10.94,0.22,14.75c0.17,3.81,0.79,6.42,1.66,8.68c0.92,2.36,2.14,4.35,4.13,6.34
				c1.99,1.99,3.99,3.21,6.34,4.13c2.27,0.89,4.87,1.48,8.68,1.66s5.03,0.22,14.75,0.22s10.94-0.04,14.75-0.22
				c3.81-0.17,6.42-0.79,8.68-1.66c2.36-0.92,4.35-2.14,6.34-4.13c1.99-1.99,3.21-3.99,4.13-6.34c0.89-2.27,1.48-4.87,1.66-8.68
				c0.17-3.81,0.22-5.03,0.22-14.75s-0.04-10.94-0.22-14.75c-0.17-3.81-0.79-6.42-1.66-8.68c-0.92-2.34-2.14-4.35-4.12-6.33
				c-1.99-1.99-3.99-3.21-6.34-4.13c-2.27-0.89-4.87-1.48-8.68-1.66s-5.03-0.22-14.75-0.22S25.08,0.27,21.26,0.44
				C17.44,0.6,14.83,1.21,12.57,2.1z M50.46,6.87c3.49,0.16,5.38,0.74,6.65,1.24c1.67,0.65,2.87,1.43,4.12,2.68
				c1.25,1.25,2.02,2.44,2.68,4.12c0.49,1.27,1.08,3.16,1.24,6.65c0.17,3.77,0.2,4.9,0.2,14.46s-0.04,10.69-0.2,14.46
				c-0.16,3.49-0.74,5.38-1.24,6.65c-0.65,1.67-1.43,2.87-2.68,4.12c-1.25,1.25-2.44,2.02-4.12,2.68c-1.27,0.49-3.16,1.08-6.65,1.24
				c-3.77,0.17-4.9,0.2-14.46,0.2s-10.69-0.04-14.46-0.2c-3.49-0.16-5.38-0.74-6.65-1.24c-1.67-0.65-2.87-1.43-4.12-2.68
				c-1.25-1.25-2.02-2.44-2.68-4.12c-0.49-1.27-1.08-3.16-1.24-6.65c-0.17-3.77-0.2-4.9-0.2-14.46s0.04-10.69,0.2-14.46
				c0.16-3.49,0.74-5.38,1.24-6.65c0.65-1.67,1.43-2.87,2.68-4.12c1.25-1.25,2.44-2.02,4.12-2.68c1.27-0.49,3.16-1.08,6.65-1.24
				c3.77-0.17,4.9-0.2,14.46-0.2S46.69,6.7,50.46,6.87z"/>
			
				<radialGradient id="SVGID_00000007403371271503541150000010833644482594646946_" cx="39.0677" cy="246.8435" r="53.1367" gradientTransform="matrix(0.9986 -0.0523 -0.0445 -0.8488 -9.7383 262.5758)" gradientUnits="userSpaceOnUse">
				<stop  offset="0" style="stop-color:#FED576"/>
				<stop  offset="0.2634" style="stop-color:#F47133"/>
				<stop  offset="0.6091" style="stop-color:#BC3081"/>
				<stop  offset="1" style="stop-color:#4C63D2"/>
			</radialGradient>
			<path style="fill:url(#SVGID_00000007403371271503541150000010833644482594646946_);" d="M17.63,36.01
				c0,10.15,8.23,18.37,18.37,18.37s18.37-8.23,18.37-18.37S46.15,17.63,36,17.63S17.63,25.85,17.63,36.01z M47.93,36.01
				c0,6.59-5.34,11.93-11.93,11.93S24.07,42.6,24.07,36.01S29.41,24.08,36,24.08S47.93,29.42,47.93,36.01z"/>
			<circle class="st6" cx="55.11" cy="16.91" r="4.29"/>
		</g>
	</g>
</g>
</svg>
