<?xml version="1.0" encoding="utf-8"?>
<!-- Generator: Adobe Illustrator 27.6.1, SVG Export Plug-In . SVG Version: 6.00 Build 0)  -->
<svg version="1.1" id="Layer_1" xmlns="http://www.w3.org/2000/svg" xmlns:xlink="http://www.w3.org/1999/xlink" x="0px" y="0px"
	 viewBox="0 0 72 72" style="enable-background:new 0 0 72 72;" xml:space="preserve">
<style type="text/css">
	.st0{fill-rule:evenodd;clip-rule:evenodd;}
	.st1{fill-rule:evenodd;clip-rule:evenodd;fill:#FFFFFF;}
</style>
<g>
	<path class="st0" d="M8,72h56c4.42,0,8-3.58,8-8V8c0-4.42-3.58-8-8-8H8C3.58,0,0,3.58,0,8v56C0,68.42,3.58,72,8,72z"/>
	<path class="st1" d="M62,62H51.32V43.8c0-4.99-1.9-7.78-5.84-7.78c-4.3,0-6.54,2.9-6.54,7.78V62h-10.3V27.33h10.3V32
		c0,0,3.1-5.73,10.45-5.73c7.35,0,12.62,4.49,12.62,13.78V62z M16.35,22.79c-3.51,0-6.35-2.86-6.35-6.4s2.84-6.4,6.35-6.4
		s6.35,2.86,6.35,6.4S19.86,22.79,16.35,22.79z M11.03,62h10.74V27.33H11.03V62z"/>
</g>
</svg>
